<svg xmlns="http://www.w3.org/2000/svg" xmlns:xlink="http://www.w3.org/1999/xlink" width="2000" zoomAndPan="magnify" viewBox="0 0 1500 1499.999933" height="2000" preserveAspectRatio="xMidYMid meet" version="1.0"><defs><g/><clipPath id="b6630292ac"><rect x="0" width="1417" y="0" height="1500"/></clipPath><clipPath id="d136007442"><rect x="0" width="427" y="0" height="927"/></clipPath></defs><g transform="matrix(1, 0, 0, 1, 0, 0.000000000000112861)"><g clip-path="url(#b6630292ac)"><g fill="#b4f32a" fill-opacity="1"><g transform="translate(-71.360396, 1206.072343)"><g><path d="M 607.671875 -857.609375 L 841.6875 -857.609375 L 841.6875 0 L 607.671875 0 L 607.671875 -329.5625 L 319.765625 -329.5625 L 319.765625 0 L 85.765625 0 L 85.765625 -857.609375 L 319.765625 -857.609375 L 319.765625 -528.046875 L 607.671875 -528.046875 Z M 607.671875 -857.609375 "/></g></g></g><g fill="#b4f32a" fill-opacity="1"><g transform="translate(707.840909, 1206.072343)"><g><path d="M 705.6875 -659.140625 L 320.984375 -659.140625 L 320.984375 -528.046875 L 667.703125 -528.046875 L 667.703125 -329.5625 L 320.984375 -329.5625 L 320.984375 0 L 85.765625 0 L 85.765625 -857.609375 L 705.6875 -857.609375 Z M 705.6875 -659.140625 "/></g></g></g></g></g><g transform="matrix(1, 0, 0, 1, 1068, 373)"><g clip-path="url(#d136007442)"><g fill="#ff2e9a" fill-opacity="1"><g transform="translate(0.316213, 710.916109)"><g><path d="M 404.6875 17.21875 L 404.6875 118.390625 L 21.53125 118.390625 L 21.53125 17.21875 Z M 404.6875 17.21875 "/></g></g></g></g></g></svg>